<svg width="2016" height="500" viewBox="0 0 2016 500" fill="none" xmlns="http://www.w3.org/2000/svg">
<g clip-path="url(#clip0_405_60)">
<path d="M782.196 247.386V360.153C782.196 365.676 786.673 370.153 792.196 370.153H826.727V247.386C826.727 237.184 824.718 227.468 820.69 218.29C816.933 208.914 811.552 200.697 804.555 193.687C797.561 186.682 789.474 181.282 780.329 177.511C771.152 173.726 761.339 171.853 750.943 171.853C739.222 171.853 728.317 174.256 718.31 179.122C710.205 182.86 702.987 187.858 696.676 194.097C690.372 187.865 683.164 182.87 675.07 179.134C665.287 174.251 654.492 171.853 642.784 171.853C635.3 171.853 627.736 173.875 620.148 177.675L620.113 177.693L620.077 177.711C617.012 179.303 614.161 181.075 611.531 183.03V176.352H577C571.477 176.352 567 180.829 567 186.352V370.153H611.531V248.136C611.531 239.386 614.662 231.88 621.17 225.362C627.127 219.395 634.226 216.457 642.784 216.457C651.638 216.457 659.173 219.433 665.655 225.492L665.66 225.497L665.665 225.502C671.43 230.863 674.411 237.859 674.411 247.012V370.153H719.316V247.012C719.316 238.214 722.351 231.177 728.442 225.497L728.446 225.492C734.956 219.407 742.376 216.457 750.943 216.457C759.791 216.457 767.002 219.423 772.932 225.362L772.965 225.396L772.999 225.429C779.156 231.383 782.196 238.586 782.196 247.386Z" fill="black"/>
<path d="M864.458 149.119L864.595 149.267L864.742 149.403C869.232 153.58 874.665 155.728 880.783 155.728C886.908 155.728 892.296 153.569 896.594 149.264C901.057 144.794 903.423 139.307 903.423 133.052C903.423 126.85 901.092 121.462 896.597 117.212C892.354 112.709 886.974 110.375 880.783 110.375C874.538 110.375 869.06 112.744 864.597 117.214C860.299 121.519 858.143 126.916 858.143 133.052C858.143 139.18 860.288 144.622 864.458 149.119Z" fill="black"/>
<path d="M860.015 171.853V370.153H902.3V171.853H860.015Z" fill="black"/>
<path d="M1050.76 252.26V360.153C1050.76 365.676 1055.24 370.153 1060.76 370.153H1094.54V252.26C1094.54 241.316 1092.41 230.967 1088.12 221.271C1084.12 211.416 1078.5 202.827 1071.25 195.562C1063.76 188.067 1055.07 182.301 1045.2 178.283C1035.54 173.995 1025.34 171.853 1014.64 171.853C1006.22 171.853 997.81 173.966 989.448 178.019C985.474 179.945 981.826 182.136 978.522 184.601V176.352H945.114C939.591 176.352 935.114 180.829 935.114 186.352V370.153H978.522V252.26C978.522 247.814 979.467 243.449 981.412 239.12L981.432 239.075L981.451 239.03C983.446 234.368 986.065 230.46 989.283 227.237C996.542 219.966 1004.91 216.457 1014.64 216.457C1024.71 216.457 1033.05 219.902 1040 226.862C1047.25 234.132 1050.76 242.513 1050.76 252.26Z" fill="black"/>
<path d="M1140.79 330.153C1140.79 352.244 1158.69 370.153 1180.79 370.153H1183.45C1198.66 370.153 1211 357.817 1211 342.599V334.5H1193.45C1187.92 334.5 1183.45 330.023 1183.45 324.5V216.457H1211.51V171.853H1183.45V120C1183.45 114.477 1178.97 110 1173.45 110H1140.79V171.853H1112.72V216.457H1140.79V330.153Z" fill="black"/>
<path fill-rule="evenodd" clip-rule="evenodd" d="M1391.22 349.237V360.153C1391.22 365.676 1395.7 370.153 1401.22 370.153H1435V110.375H1401.22C1395.7 110.375 1391.22 114.852 1391.22 120.375V190.521C1385.55 185.414 1379.17 181.126 1372.1 177.664C1360.8 172.007 1348.23 169.229 1334.52 169.229C1320.61 169.229 1307.54 171.858 1295.35 177.157C1283.2 182.191 1272.61 189.487 1263.61 199.019C1254.42 208.498 1247.19 219.425 1241.95 231.764L1241.94 231.79L1241.93 231.817C1236.91 244 1234.41 256.954 1234.41 270.628C1234.41 284.303 1236.91 297.367 1241.91 309.776L1241.94 309.842L1241.97 309.906C1247.22 321.992 1254.43 332.778 1263.61 342.238C1272.6 351.762 1283.18 359.173 1295.3 364.454L1295.35 364.474L1295.4 364.493C1307.57 369.531 1320.63 372.027 1334.52 372.027C1347.12 372.027 1359.18 369.067 1370.65 363.196C1378.17 359.428 1385.03 354.772 1391.22 349.237ZM1312.96 218.693L1313.03 218.664L1313.1 218.633C1319.9 215.683 1327.02 214.208 1334.52 214.208C1342.02 214.208 1349.14 215.683 1355.94 218.633L1356.04 218.676L1356.14 218.715C1363.17 221.439 1369.1 225.378 1374.01 230.524C1379.02 235.765 1383.03 241.944 1386.03 249.113L1386.04 249.142L1386.05 249.172C1389 255.981 1390.47 263.117 1390.47 270.628C1390.47 285.917 1385.06 299.203 1374.02 310.725L1374.01 310.733C1369.07 315.911 1363.09 319.996 1356 322.973L1355.97 322.985L1355.94 322.998C1349.14 325.949 1342.02 327.424 1334.52 327.424C1327.02 327.424 1319.9 325.949 1313.1 322.998C1306.26 320.029 1300.37 315.943 1295.4 310.733L1295.4 310.729L1295.39 310.725C1284.35 299.203 1278.94 285.917 1278.94 270.628C1278.94 263.117 1280.41 255.981 1283.36 249.172L1283.37 249.142L1283.38 249.113C1286.38 241.944 1290.39 235.765 1295.4 230.524C1300.34 225.346 1306.18 221.408 1312.96 218.693Z" fill="black"/>
<path d="M1553.05 218.212L1555.63 219.395L1595.82 195.628L1589.81 190.7C1581.28 183.707 1572.95 178.499 1564.81 175.241C1556.67 171.98 1548.13 170.354 1539.22 170.354C1528.21 170.354 1517.82 172.645 1508.09 177.247L1507.99 177.292L1507.9 177.341C1495.08 184.028 1484.87 193.44 1477.35 205.53L1477.33 205.567L1477.31 205.605C1470.05 217.721 1466.43 231.062 1466.43 245.512V370.153H1499.46C1504.99 370.153 1509.46 365.676 1509.46 360.153V245.512C1509.46 237.219 1512.38 229.902 1518.49 223.353L1518.49 223.348L1518.49 223.343C1523.9 217.51 1530.67 214.583 1539.22 214.583C1542.94 214.583 1547.52 215.67 1553.05 218.212Z" fill="black"/>
<path fill-rule="evenodd" clip-rule="evenodd" d="M1654.07 364.079C1666.24 369.38 1679.07 372.027 1692.53 372.027C1706.22 372.027 1719.3 369.386 1731.71 364.096C1744.05 358.834 1754.87 351.576 1764.11 342.321C1773.34 333.077 1780.46 322.368 1785.48 310.233C1790.75 298.056 1793.39 285.213 1793.39 271.753C1793.39 258.057 1790.76 244.977 1785.49 232.56C1780.49 220.173 1773.35 209.324 1764.11 200.06C1754.86 190.797 1744.03 183.655 1731.66 178.641C1719.26 173.364 1706.2 170.729 1692.53 170.729C1679.09 170.729 1666.27 173.369 1654.11 178.657C1642 183.676 1631.31 190.816 1622.08 200.06C1612.84 209.315 1605.59 220.148 1600.34 232.514C1595.06 244.945 1592.42 258.04 1592.42 271.753C1592.42 285.231 1595.06 298.09 1600.36 310.281C1605.61 322.394 1612.86 333.086 1622.08 342.321C1631.3 351.556 1641.97 358.813 1654.07 364.079ZM1714.33 219.383L1714.42 219.426L1714.52 219.465C1721.55 222.189 1727.48 226.127 1732.4 231.274C1737.4 236.515 1741.41 242.693 1744.42 249.862C1747.39 256.957 1748.86 264.241 1748.86 271.753C1748.86 279.264 1747.39 286.4 1744.44 293.209C1741.45 300.133 1737.43 306.212 1732.4 311.482C1727.45 316.661 1721.47 320.746 1714.39 323.723C1707.3 326.698 1700.03 328.173 1692.53 328.173C1685.04 328.173 1677.93 326.703 1671.14 323.761C1664.53 320.79 1658.6 316.679 1653.33 311.396C1648.07 306.134 1643.97 300.083 1640.99 293.209C1638.05 286.4 1636.58 279.264 1636.58 271.753C1636.58 264.241 1638.05 256.957 1641.02 249.862C1644 242.743 1648.1 236.592 1653.33 231.36C1664.3 220.368 1677.27 214.958 1692.53 214.958C1700.3 214.958 1707.55 216.441 1714.33 219.383Z" fill="black"/>
<path fill-rule="evenodd" clip-rule="evenodd" d="M1878.28 366.206L1878.34 366.232L1878.39 366.256C1888.8 371.199 1901.51 373.527 1916.26 373.527C1929.71 373.527 1942.54 370.882 1954.71 365.588C1967.06 360.321 1977.77 353.05 1986.77 343.766C1995.97 334.292 2003.08 323.482 2008.08 311.363C2013.37 299.171 2016 286.2 2016 272.503C2016 258.814 2013.37 245.849 2008.09 233.663C2003.1 221.31 1995.99 210.374 1986.8 200.891C1977.79 191.344 1967.06 184.052 1954.67 179.024C1942.51 173.742 1929.7 171.104 1916.26 171.104C1903.61 171.104 1891.51 174.215 1880.02 180.368C1872.82 184.229 1866.24 188.893 1860.31 194.351V176.352H1826.15C1820.63 176.352 1816.15 180.829 1816.15 186.352V440C1816.15 445.523 1820.63 450 1826.15 450H1860.31V353.393C1865.88 358.702 1871.86 362.99 1878.28 366.206ZM1894.7 220.567L1894.77 220.538L1894.84 220.508C1901.64 217.557 1908.77 216.082 1916.26 216.082C1923.76 216.082 1930.89 217.557 1937.69 220.508L1937.76 220.538L1937.83 220.567C1944.6 223.282 1950.44 227.22 1955.38 232.398C1960.36 237.606 1964.22 243.737 1966.97 250.847L1967.01 250.947L1967.05 251.046C1970 257.855 1971.47 264.991 1971.47 272.503C1971.47 280.014 1970 287.15 1967.05 293.959L1967.02 294.03L1966.99 294.102C1964.25 300.964 1960.39 306.994 1955.38 312.232C1950.41 317.442 1944.53 321.529 1937.69 324.498C1930.89 327.448 1923.76 328.923 1916.26 328.923C1908.77 328.923 1901.64 327.448 1894.84 324.498C1888 321.529 1882.12 317.442 1877.14 312.232C1872.11 306.962 1868.1 300.883 1865.1 293.959C1862.16 287.15 1860.68 280.014 1860.68 272.503C1860.68 264.991 1862.16 257.855 1865.1 251.046L1865.12 251.017L1865.13 250.987C1868.13 243.818 1872.14 237.639 1877.14 232.398C1882.09 227.22 1887.92 223.282 1894.7 220.567Z" fill="black"/>
<path d="M219.499 0C313.11 72.1805 405.172 170.911 409 294.752C408.909 364.683 374.363 435.423 312.29 471.963C220.046 526.234 85.964 500.044 29.5421 407.883C-9.379 344.162 -8.19405 261.812 23.435 195.571C48.5013 143.101 88.6074 98.8207 132.997 61.4704C179.757 90.8106 220.319 129.241 256.324 170.641C298.07 218.612 330.52 287.552 301.169 349.652C268.264 419.133 158.519 425.073 115.132 363.423C76.3021 310.052 100.73 240.032 137.464 192.601L173.377 225.722C153.962 258.662 128.531 303.572 158.702 338.222C183.13 366.213 237.638 363.513 255.503 329.222C270.361 300.602 261.337 265.862 244.747 239.942C216.582 195.391 179.119 155.251 135.367 125.461C99.5454 163.801 66.0933 207.091 54.1526 259.202C39.8421 322.022 63.9057 394.473 120.783 428.943C190.604 471.243 294.242 451.893 336.353 380.073C372.266 318.602 360.508 241.742 324.686 183.241C287.77 122.761 233.263 71.5505 176.567 29.4302L219.499 0Z" fill="black"/>
</g>
<defs>
<clipPath id="clip0_405_60">
<rect width="2016" height="500" fill="white"/>
</clipPath>
</defs>
</svg>
